<?xml version="1.0" standalone="no"?><!DOCTYPE svg PUBLIC "-//W3C//DTD SVG 1.1//EN" "http://www.w3.org/Graphics/SVG/1.1/DTD/svg11.dtd"><svg class="icon" width="200px" height="200.00px" viewBox="0 0 1024 1024" version="1.1" xmlns="http://www.w3.org/2000/svg"><path d="M512.025555 0C229.230846 0 0 229.230846 0 512.025555 0 794.820265 229.230846 1024 512.025555 1024c282.769154 0 511.974445-229.205291 511.974445-511.974445C1024 229.230846 794.820265 0 512.025555 0zM512.025555 965.350636c-250.390616 0-453.376192-202.96002-453.376192-453.325081 0-250.390616 202.985575-453.376192 453.376192-453.376192 250.365061 0 453.325081 202.985575 453.325081 453.376192C965.350636 762.390616 762.390616 965.350636 512.025555 965.350636zM636.786424 306.663339c3.092189 0 3.19441-16.355378 5.187721-27.778587 10.477664-60.080459-53.793861-118.602046-120.160918-118.602046-66.367058 0-120.160918 50.318343-120.160918 117.273172 0 11.576541 2.095533 29.107462 5.162166 29.107462L255.552783 306.663339l0 485.550287 511.105565 0L766.658348 306.663339 636.786424 306.663339zM430.453107 277.913651c0-52.311655 39.815124-81.163564 81.572448-91.079012C562.216122 174.900324 621.32548 233.984128 613.326678 275.511455 611.103369 287.062441 607.270077 306.663339 603.513451 306.663339l-165.879311 0C433.877514 306.663339 430.453107 289.669079 430.453107 277.913651zM715.547791 741.10307 306.663339 741.10307 306.663339 357.773896l116.762066 0 36.441827 0 104.342201 0 36.467382 0L715.547791 357.773896 715.547791 741.10307z" /></svg>